<?xml version="1.0" encoding="UTF-8"?>
<svg width="136px" height="24px" viewBox="0 0 136 24" version="1.1" xmlns="http://www.w3.org/2000/svg" xmlns:xlink="http://www.w3.org/1999/xlink">
    <title>编组 8</title>
    <g id="标签管理" stroke="none" stroke-width="1" fill="none" fill-rule="evenodd">
        <g id="首页" transform="translate(-52.000000, -24.000000)" fill="#722ED1" fill-rule="nonzero">
            <g id="编组-8" transform="translate(52.000000, 24.000000)">
                <path d="M11.2941176,24 C12.4145658,24 13.4677871,23.9103641 14.4537815,23.7310924 C15.4397759,23.5518207 16.280112,23.3165266 16.9747899,23.0252101 L16.9747899,23.0252101 L16.9747899,18.6554622 C16.0784314,18.9691877 15.1876751,19.1988796 14.302521,19.3445378 C13.4173669,19.4901961 12.4929972,19.5630252 11.5294118,19.5630252 C10.4985994,19.5630252 9.60784314,19.4509804 8.85714286,19.2268908 C8.10644258,19.0028011 7.48459384,18.605042 6.99159664,18.0336134 C6.49859944,17.4621849 6.13445378,16.6890756 5.89915966,15.7142857 C5.66386555,14.7394958 5.54621849,13.4901961 5.54621849,11.9663866 C5.54621849,10.5322129 5.66386555,9.33333333 5.89915966,8.3697479 C6.13445378,7.40616246 6.49859944,6.62745098 6.99159664,6.03361345 C7.48459384,5.43977591 8.11204482,5.0140056 8.87394958,4.75630252 C9.63585434,4.49859944 10.5434174,4.3697479 11.5966387,4.3697479 C12.5826331,4.3697479 13.5014006,4.44257703 14.3529412,4.58823529 C15.2044818,4.73389356 15.9887955,4.92997199 16.7058824,5.17647059 L16.7058824,5.17647059 L16.7058824,0.773109244 C15.2717087,0.257703081 13.4565826,0 11.2605042,0 C9.53501401,0 7.98319328,0.201680672 6.60504202,0.605042017 C5.22689076,1.00840336 4.04481793,1.68067227 3.05882353,2.62184874 C2.07282913,3.56302521 1.31652661,4.80112045 0.789915966,6.33613445 C0.263305322,7.87114846 0,9.75910364 0,12 C0,14.442577 0.268907563,16.442577 0.806722689,18 C1.34453782,19.557423 2.10644258,20.7787115 3.09243697,21.6638655 C4.07843137,22.5490196 5.26610644,23.1596639 6.65546218,23.4957983 C8.04481793,23.8319328 9.59103641,24 11.2941176,24 Z M28.907563,23.6638655 C30.6106443,23.6638655 32.162465,23.4789916 33.5630252,23.1092437 C34.9635854,22.7394958 36.162465,22.1064426 37.1596639,21.210084 C38.1568627,20.3137255 38.9243697,19.1204482 39.4621849,17.6302521 C40,16.140056 40.2689076,14.2633053 40.2689076,12 C40.2689076,9.57983193 40,7.60784314 39.4621849,6.08403361 C38.9243697,4.56022409 38.1568627,3.37254902 37.1596639,2.5210084 C36.162465,1.66946779 34.9635854,1.09243697 33.5630252,0.789915966 C32.162465,0.487394958 30.6106443,0.336134454 28.907563,0.336134454 L28.907563,0.336134454 L20.907563,0.336134454 L20.907563,23.6638655 L28.907563,23.6638655 Z M28.6386555,19.2941176 L26.0168067,19.2941176 L26.0168067,4.63865546 L28.6386555,4.63865546 C29.6918768,4.63865546 30.6162465,4.7394958 31.4117647,4.94117647 C32.2072829,5.14285714 32.8683473,5.51820728 33.394958,6.06722689 C33.9215686,6.6162465 34.3193277,7.36694678 34.5882353,8.31932773 C34.8571429,9.27170868 34.9915966,10.4985994 34.9915966,12 C34.9915966,13.4117647 34.8627451,14.5882353 34.605042,15.5294118 C34.3473389,16.4705882 33.9551821,17.2212885 33.4285714,17.7815126 C32.9019608,18.3417367 32.2408964,18.7338936 31.4453782,18.9579832 C30.6498599,19.1820728 29.7142857,19.2941176 28.6386555,19.2941176 L28.6386555,19.2941176 Z M49.9831933,23.6638655 L49.9831933,16.4705882 L52.8403361,16.4705882 C54.4761905,16.4705882 55.8767507,16.3305322 57.0420168,16.0504202 C58.2072829,15.7703081 59.1596639,15.3053221 59.8991597,14.6554622 C60.6386555,14.0056022 61.1764706,13.1596639 61.512605,12.1176471 C61.8487395,11.0756303 62.0168067,9.79271709 62.0168067,8.26890756 C62.0168067,6.85714286 61.8655462,5.65266106 61.5630252,4.65546218 C61.2605042,3.65826331 60.7563025,2.84033613 60.0504202,2.20168067 C59.3445378,1.56302521 58.4033613,1.09243697 57.2268908,0.789915966 C56.0504202,0.487394958 54.5882353,0.336134454 52.8403361,0.336134454 L52.8403361,0.336134454 L44.8739496,0.336134454 L44.8739496,23.6638655 L49.9831933,23.6638655 Z M52.1680672,12.3697479 L49.9831933,12.3697479 L49.9831933,4.3697479 L52.1680672,4.3697479 C53.0196078,4.3697479 53.7422969,4.43697479 54.3361345,4.57142857 C54.929972,4.70588235 55.4117647,4.92997199 55.7815126,5.24369748 C56.1512605,5.55742297 56.4145658,5.9719888 56.5714286,6.48739496 C56.7282913,7.00280112 56.8067227,7.6302521 56.8067227,8.3697479 C56.8067227,9.15406162 56.7282913,9.79831933 56.5714286,10.302521 C56.4145658,10.8067227 56.1512605,11.2156863 55.7815126,11.5294118 C55.4117647,11.8431373 54.9355742,12.0616246 54.3529412,12.1848739 C53.7703081,12.3081232 53.0420168,12.3697479 52.1680672,12.3697479 L52.1680672,12.3697479 Z" id="CDP"></path>
                <path d="M70.336,21.24 C71.328,21.24 72.018,20.938 72.406,20.334 C72.794,19.73 72.988,18.912 72.988,17.88 C72.988,17.16 72.912,16.556 72.76,16.068 C72.608,15.58 72.338,15.2 71.95,14.928 C71.562,14.656 71.024,14.52 70.336,14.52 C69.28,14.52 68.6,14.9 68.296,15.66 L68.296,15.66 L68.296,12 L67,12 L67,21.12 L68.152,21.12 L68.284,20.076 C68.42,20.452 68.648,20.74 68.968,20.94 C69.288,21.14 69.744,21.24 70.336,21.24 Z M70.06,20.208 C69.388,20.208 68.914,20.01 68.638,19.614 C68.362,19.218 68.224,18.64 68.224,17.88 C68.224,17.096 68.36,16.51 68.632,16.122 C68.904,15.734 69.38,15.54 70.06,15.54 C70.692,15.54 71.114,15.74 71.326,16.14 C71.538,16.54 71.644,17.12 71.644,17.88 C71.644,18.36 71.606,18.764 71.53,19.092 C71.454,19.42 71.302,19.688 71.074,19.896 C70.846,20.104 70.508,20.208 70.06,20.208 Z M74.476,23.52 C75.14,23.52 75.674,23.422 76.078,23.226 C76.482,23.03 76.81,22.742 77.062,22.362 C77.314,21.982 77.568,21.448 77.824,20.76 L77.824,20.76 L80.092,14.64 L78.748,14.64 L77.032,19.74 L76.96,19.74 L75.148,14.64 L73.732,14.64 L76.3,21.096 C76.156,21.56 75.95,21.894 75.682,22.098 C75.414,22.302 75.012,22.404 74.476,22.404 L74.476,22.404 L74.476,23.52 Z M87.16,21.12 L87.16,13.98 L89.5,13.98 L89.5,12.792 L83.476,12.792 L83.476,13.98 L85.816,13.98 L85.816,21.12 L87.16,21.12 Z M93.412,21.24 C93.884,21.24 94.332,21.2 94.756,21.12 C95.18,21.04 95.496,20.944 95.704,20.832 L95.704,20.832 L95.704,19.728 C95.464,19.848 95.15,19.95 94.762,20.034 C94.374,20.118 93.996,20.16 93.628,20.16 C92.932,20.16 92.436,20.018 92.14,19.734 C91.844,19.45 91.688,18.992 91.672,18.36 L91.672,18.36 L95.98,18.084 C96.02,17.804 96.04,17.536 96.04,17.28 C96.04,16.448 95.852,15.78 95.476,15.276 C95.1,14.772 94.404,14.52 93.388,14.52 C92.716,14.52 92.158,14.622 91.714,14.826 C91.27,15.03 90.932,15.378 90.7,15.87 C90.468,16.362 90.352,17.032 90.352,17.88 C90.352,18.728 90.47,19.398 90.706,19.89 C90.942,20.382 91.282,20.73 91.726,20.934 C92.17,21.138 92.732,21.24 93.412,21.24 Z M91.672,17.424 C91.688,16.776 91.818,16.3 92.062,15.996 C92.306,15.692 92.748,15.54 93.388,15.54 C93.964,15.54 94.346,15.684 94.534,15.972 C94.722,16.26 94.816,16.668 94.816,17.196 L94.816,17.196 L91.672,17.424 Z M98.98,21.12 L98.98,17.1 C99.22,16.156 99.864,15.684 100.912,15.684 L100.912,15.684 L101.056,15.684 L101.104,14.52 L100.972,14.52 C100.516,14.52 100.116,14.612 99.772,14.796 C99.428,14.98 99.164,15.316 98.98,15.804 L98.98,15.804 L98.98,14.64 L97.684,14.64 L97.684,21.12 L98.98,21.12 Z M103.624,21.12 L103.624,16.68 C103.752,16.272 103.936,15.994 104.176,15.846 C104.416,15.698 104.74,15.624 105.148,15.624 C105.564,15.624 105.852,15.74 106.012,15.972 C106.172,16.204 106.252,16.568 106.252,17.064 L106.252,17.064 L106.252,21.12 L107.548,21.12 L107.548,16.692 C107.652,16.292 107.832,16.014 108.088,15.858 C108.344,15.702 108.672,15.624 109.072,15.624 C109.496,15.624 109.792,15.74 109.96,15.972 C110.128,16.204 110.212,16.568 110.212,17.064 L110.212,17.064 L110.212,21.12 L111.508,21.12 L111.508,16.704 C111.508,15.248 110.796,14.52 109.372,14.52 C108.356,14.52 107.68,14.856 107.344,15.528 C107.056,14.856 106.432,14.52 105.472,14.52 C105.032,14.52 104.658,14.59 104.35,14.73 C104.042,14.87 103.8,15.108 103.624,15.444 L103.624,15.444 L103.624,14.64 L102.328,14.64 L102.328,21.12 L103.624,21.12 Z M114.124,13.56 C114.42,13.56 114.618,13.514 114.718,13.422 C114.818,13.33 114.868,13.132 114.868,12.828 C114.868,12.62 114.846,12.466 114.802,12.366 C114.758,12.266 114.686,12.2 114.586,12.168 C114.486,12.136 114.332,12.12 114.124,12.12 C113.916,12.12 113.76,12.136 113.656,12.168 C113.552,12.2 113.478,12.266 113.434,12.366 C113.39,12.466 113.368,12.62 113.368,12.828 C113.368,13.044 113.39,13.202 113.434,13.302 C113.478,13.402 113.552,13.47 113.656,13.506 C113.76,13.542 113.916,13.56 114.124,13.56 Z M114.76,21.12 L114.76,14.64 L113.464,14.64 L113.464,21.12 L114.76,21.12 Z M118.072,21.12 L118.072,16.776 C118.208,16.328 118.422,16.024 118.714,15.864 C119.006,15.704 119.376,15.624 119.824,15.624 C120.288,15.624 120.6,15.736 120.76,15.96 C120.92,16.184 121,16.552 121,17.064 L121,17.064 L121,21.12 L122.296,21.12 L122.296,16.656 C122.296,15.96 122.132,15.43 121.804,15.066 C121.476,14.702 120.916,14.52 120.124,14.52 C119.66,14.52 119.246,14.596 118.882,14.748 C118.518,14.9 118.248,15.152 118.072,15.504 L118.072,15.504 L118.072,14.64 L116.776,14.64 L116.776,21.12 L118.072,21.12 Z M126.4,21.24 C127.424,21.24 128.1,20.908 128.428,20.244 L128.428,20.244 L128.56,21.12 L129.688,21.12 L129.688,14.64 L128.404,14.64 L128.404,18.996 C128.26,19.444 128.048,19.748 127.768,19.908 C127.488,20.068 127.132,20.148 126.7,20.148 C126.244,20.148 125.934,20.032 125.77,19.8 C125.606,19.568 125.524,19.2 125.524,18.696 L125.524,18.696 L125.524,14.64 L124.228,14.64 L124.228,19.104 C124.228,19.8 124.392,20.33 124.72,20.694 C125.048,21.058 125.608,21.24 126.4,21.24 Z M133.324,21.192 C134.148,21.192 134.774,21.036 135.202,20.724 C135.63,20.412 135.844,19.92 135.844,19.248 C135.844,18.84 135.784,18.514 135.664,18.27 C135.544,18.026 135.346,17.828 135.07,17.676 C134.794,17.524 134.404,17.388 133.9,17.268 C133.54,17.18 133.278,17.104 133.114,17.04 C132.95,16.976 132.836,16.892 132.772,16.788 C132.708,16.684 132.676,16.536 132.676,16.344 C132.676,16.04 132.772,15.828 132.964,15.708 C133.156,15.588 133.476,15.528 133.924,15.528 C134.204,15.528 134.49,15.552 134.782,15.6 C135.074,15.648 135.316,15.708 135.508,15.78 L135.508,15.78 L135.58,14.736 C135.412,14.672 135.17,14.62 134.854,14.58 C134.538,14.54 134.216,14.52 133.888,14.52 C133.08,14.52 132.476,14.68 132.076,15 C131.676,15.32 131.476,15.764 131.476,16.332 C131.476,16.708 131.526,17.01 131.626,17.238 C131.726,17.466 131.902,17.654 132.154,17.802 C132.406,17.95 132.772,18.08 133.252,18.192 C133.66,18.288 133.958,18.376 134.146,18.456 C134.334,18.536 134.462,18.638 134.53,18.762 C134.598,18.886 134.632,19.064 134.632,19.296 C134.632,19.624 134.524,19.852 134.308,19.98 C134.092,20.108 133.748,20.172 133.276,20.172 C132.988,20.172 132.666,20.146 132.31,20.094 C131.954,20.042 131.644,19.976 131.38,19.896 L131.38,19.896 L131.38,20.988 C131.596,21.044 131.888,21.092 132.256,21.132 C132.624,21.172 132.98,21.192 133.324,21.192 Z" id="byTerminus"></path>
            </g>
        </g>
    </g>
</svg>